<?xml version="1.0" standalone="no"?>
<!DOCTYPE svg PUBLIC "-//W3C//DTD SVG 20010904//EN"
 "http://www.w3.org/TR/2001/REC-SVG-20010904/DTD/svg10.dtd">
<svg version="1.0" xmlns="http://www.w3.org/2000/svg"
 width="512.000000pt" height="512.000000pt" viewBox="0 0 512.000000 512.000000"
 preserveAspectRatio="xMidYMid meet">

<g transform="translate(0.000000,512.000000) scale(0.100000,-0.100000)"
fill="#000000" stroke="none">
<path d="M393 4680 c-48 -11 -119 -56 -147 -93 -60 -78 -56 42 -56 -1729 l0
-1623 24 -51 c13 -27 43 -67 67 -87 65 -56 116 -67 306 -67 161 0 164 0 188
25 14 13 25 34 25 45 0 11 -11 32 -25 45 -24 25 -27 25 -187 25 -179 0 -206 7
-245 67 -17 26 -18 102 -18 1624 l0 1598 21 28 c11 15 36 36 55 45 32 17 94
18 867 18 l832 0 0 -319 c0 -299 1 -320 19 -342 l19 -24 306 -3 306 -3 0 -380
0 -379 -355 0 -355 0 0 156 c0 90 -4 164 -11 175 -16 30 -56 42 -88 26 -15 -7
-185 -136 -379 -286 -239 -185 -354 -280 -358 -296 -3 -13 -1 -32 5 -43 9 -18
674 -540 725 -569 32 -19 54 -15 81 12 24 24 25 28 25 180 l0 155 355 0 355 0
0 -49 0 -50 -241 -3 c-239 -3 -241 -3 -260 -27 -17 -21 -19 -41 -19 -222 0
-186 1 -200 20 -219 19 -19 33 -20 260 -20 l240 0 0 -377 c0 -361 -1 -379 -20
-411 -38 -62 -37 -62 -593 -62 l-504 0 -21 -23 c-29 -30 -28 -62 3 -92 l24
-25 295 0 295 0 3 -203 c3 -185 5 -205 25 -242 28 -54 100 -119 149 -136 32
-12 235 -14 1184 -14 l1145 0 41 22 c65 35 100 69 128 125 l26 52 0 1368 0
1368 -311 328 c-171 180 -326 342 -345 360 l-34 32 -305 0 c-292 0 -306 -1
-325 -20 -28 -28 -27 -84 2 -104 19 -14 63 -16 275 -16 l252 0 3 -319 c3 -297
4 -320 22 -340 18 -20 29 -21 325 -23 l306 -3 0 -1302 c0 -1301 0 -1302 -21
-1330 -11 -15 -36 -36 -55 -45 -32 -17 -107 -18 -1137 -18 -1223 0 -1152 -4
-1193 64 -17 27 -19 53 -19 214 l0 182 143 0 c161 0 196 7 264 53 35 24 56 48
80 95 l33 64 0 389 0 389 95 0 95 0 0 -156 c0 -90 4 -164 11 -175 16 -31 56
-42 89 -26 15 8 185 137 379 286 365 283 379 297 348 344 -13 20 -600 481
-700 550 -49 33 -71 34 -102 2 -24 -24 -25 -28 -25 -180 l0 -155 -95 0 -95 0
0 720 0 720 258 0 c257 0 259 0 280 23 29 30 28 62 -3 92 l-24 25 -318 1 -318
0 -153 162 c-83 89 -212 224 -285 300 l-132 137 -885 -1 c-487 0 -899 -4 -917
-9z m2176 -582 l85 -88 -207 0 -207 0 0 216 0 216 122 -129 c68 -70 161 -167
207 -215z m2082 -640 l41 -48 -201 0 -201 0 0 213 1 212 159 -165 c88 -91 179
-186 201 -212z m-2724 -478 c25 -19 38 -20 424 -20 l399 0 0 -100 0 -99 -406
-3 -406 -3 -19 -24 c-16 -20 -19 -40 -19 -143 0 -66 -4 -118 -8 -116 -15 6
-501 383 -501 388 0 3 114 92 252 198 l252 193 3 -125 c3 -121 3 -126 29 -146z
m1556 -525 c229 -178 244 -191 229 -207 -9 -9 -123 -98 -252 -198 l-235 -181
-3 125 c-4 182 39 166 -453 166 l-399 0 0 100 0 99 406 3 406 3 19 24 c16 20
19 40 19 143 0 66 4 118 8 116 5 -1 119 -88 255 -193z"/>
<path d="M645 3445 c-30 -29 -32 -68 -5 -95 19 -19 33 -20 378 -20 329 0 360
1 375 18 19 22 23 40 14 73 -12 46 -34 49 -398 49 l-340 0 -24 -25z"/>
<path d="M646 2909 c-33 -26 -34 -68 -3 -97 22 -21 32 -22 211 -22 l187 0 25
26 c30 29 27 67 -8 97 -18 15 -43 17 -203 17 -169 0 -184 -1 -209 -21z"/>
<path d="M3729 2852 c-15 -13 -22 -30 -22 -52 0 -22 7 -39 22 -52 22 -17 48
-18 375 -18 l353 0 21 23 c30 32 28 71 -4 96 -26 20 -38 21 -374 21 -323 0
-349 -1 -371 -18z"/>
<path d="M642 2367 c-30 -32 -28 -71 4 -96 26 -20 38 -21 373 -21 393 0 391 0
391 70 0 70 3 70 -395 70 l-352 0 -21 -23z"/>
<path d="M4051 2304 c-27 -35 -26 -59 4 -89 24 -25 26 -25 208 -25 171 0 186
1 211 21 33 26 34 68 3 97 -22 21 -32 22 -214 22 l-192 0 -20 -26z"/>
<path d="M3728 1773 c-8 -10 -18 -26 -21 -36 -9 -25 18 -73 45 -81 13 -3 174
-6 359 -6 325 0 337 1 363 21 32 25 35 70 6 99 -19 19 -33 20 -378 20 -329 0
-360 -1 -374 -17z"/>
<path d="M954 1144 c-30 -29 -27 -67 8 -96 18 -16 45 -18 234 -18 201 0 215 1
234 20 28 28 27 84 -2 104 -19 13 -59 16 -236 16 l-213 0 -25 -26z"/>
</g>
</svg>
